<svg xmlns="http://www.w3.org/2000/svg" width="500" height="238"><path fill="#00dd3b" fill-rule="evenodd" d="M35.7655 151.9485c7.4529 0 14.029-2.1899 19.4359-6.7156 5.5531-4.5256 8.3297-9.7812 8.3297-15.9128 0-19.8545-23.0893-22.1904-32.4419-26.862-7.1606-4.0877-2.4843-11.5332 4.6763-11.5332 4.8225 0 7.599 3.0658 8.3297 5.4016.7307 2.4818 2.4843 3.7957 5.2608 3.7957h9.3526c2.192 0 3.9456-1.7518 3.9456-3.9417 0-4.5256-2.3381-8.9053-7.0144-13.431-4.6763-4.5257-11.2523-6.7155-19.582-6.7155-7.1606 0-13.4444 2.0439-18.7052 6.1316-5.1147 4.0877-7.7451 9.3433-7.7451 15.7668 0 13.723 12.8598 18.5406 22.797 22.1904 6.8683 2.4818 12.4214 5.5476 12.4214 9.7813 0 3.6497-2.7766 7.0075-8.7681 7.0075-4.9686 0-8.1835-1.752-9.6449-5.4017-1.023-2.4818-2.7765-3.7957-5.553-3.7957h-8.9143c-2.192 0-3.9456 1.7519-3.9456 3.9417 0 4.3797 2.3381 8.9054 7.1606 13.431 4.8224 4.5257 11.6907 6.8616 20.605 6.8616zm76.255 33.8782l-1.7537-1.1679v25.8401c0 2.1899-1.7536 3.9418-3.9456 3.9418H95.9456c-2.192 0-3.9456-1.752-3.9456-3.9418v-91.3893c0-2.1898 1.7536-3.9417 3.9456-3.9417h8.9142c2.192 0 3.9456 1.7519 3.9456 3.9417v1.168c4.238-4.2337 9.645-6.2776 16.5132-6.2776 7.1606 0 13.2983 2.3358 18.413 7.1535 5.1147 4.6716 7.599 10.5112 7.599 17.6647v25.6941c0 7.2995-2.4843 13.285-7.599 18.1027-5.1147 4.6716-11.1062 7.0075-18.1207 7.0075-5.8454 0-11.3985-2.0439-13.5905-3.7958zm123.2463-158.885v28.76c3.6534-3.3578 8.768-4.9637 15.3441-4.9637 7.0145 0 13.006 2.3358 18.1207 7.1534 5.1147 4.6717 7.599 10.6573 7.599 17.9567v25.6942c0 7.1534-2.4843 12.993-7.599 17.8107-5.1147 4.6716-11.2524 7.0074-18.413 7.0074-6.8683 0-12.2753-2.0438-16.5131-6.2775v1.168c0 2.1898-1.7537 3.9416-3.9457 3.9416h-8.9142c-2.192 0-3.9456-1.7518-3.9456-3.9417v-94.309c0-2.19 1.7536-3.9418 3.9456-3.9418h10.3756c2.192 0 3.9456 1.7519 3.9456 3.9417zm155.2558 52.876c1.0229.7299 1.4613 1.6058 1.4613 2.7737 0 .73-.2923 1.46-.7307 2.1899l-4.9685 7.0075c-.7307.876-1.6075 1.3139-2.6305 1.3139-.8768 0-1.6074-.292-2.3381-.73-7.7451-5.1096-18.413-1.0219-17.6823 7.7375v5.5476h22.9431c1.8998 0 3.6534 1.6058 3.6534 3.5037v8.1754c0 1.8979-1.7536 3.5037-3.6534 3.5037h-22.943v53.8701c0 2.1899-1.7537 3.9417-3.9457 3.9417H349.605c-2.192 0-3.9456-1.7518-3.9456-3.9417v-53.87h-13.006c-1.8997 0-3.6533-1.606-3.6533-3.5038v-8.1754c0-1.8979 1.7536-3.5037 3.6534-3.5037h13.006v-5.1097c0-7.2994 2.6303-13.431 7.745-18.2486C358.5191 77.4818 365.0952 75 373.1326 75c7.0144 0 12.8598 1.6059 17.39 4.8176zm82.2655-35.3904v13.195l11.4928-3.9413c1.2008-.1714 1.887-.3427 2.23-.3427 1.2007 0 2.0584 1.0282 2.7445 2.9132l2.0585 5.8264c0 .514.6861 2.0563.6861 2.7418 0 1.371-.8577 2.3991-2.4015 2.9132l-12.3505 4.4555 7.8906 10.2819c.343.6854.5146 1.3709.5146 2.0564 0 1.1995-.6861 2.2277-2.0584 3.0845l-5.6607 4.2841c-.5146.6855-1.3723 1.0282-2.23 1.0282-1.2007 0-2.0583-.514-2.916-1.5422l-7.7191-10.1106-7.719 10.282c-.5147.8567-1.2008 1.3708-2.4016 1.3708-1.0292 0-1.8869-.3427-2.7445-1.1995l-6.1753-4.2841c-1.0292-.8569-1.5438-1.885-1.5438-2.9132 0-.6855.1715-1.371.5146-2.0564l7.5475-10.2819-12.179-4.1128c-1.5438-.514-2.2299-1.7136-2.2299-3.2559 0-.8568.1715-1.7136.5146-2.7418l1.8869-5.8264c.6861-1.885 1.7153-2.9132 3.0876-2.9132.1716 0 .8577.1713 2.23.3427l11.4928 3.9414V44.4273c0-1.885 1.887-3.4273 4.1169-3.4273h7.2044c2.23 0 4.1169 1.5423 4.1169 3.4273z"/></svg>